<svg xmlns="http://www.w3.org/2000/svg" width="432" height="522" viewBox="0 0 432 522">
  <g id="Logo_Tangram_New" transform="translate(-472.843 88.156)">
    <path id="Sign" d="M432,432v0H246.547L432,246.545V432Zm-54-87.241a33.228,33.228,0,1,0,23.495,9.734A33.014,33.014,0,0,0,378,344.759ZM185.377,432H30.472l64.8-64.8h154.9l-64.8,64.8ZM378,406.467a28.48,28.48,0,1,1,28.483-28.48A28.512,28.512,0,0,1,378,406.467ZM371.066,381h8.179l9.335,14.715h4.926l-9.744-15.427a11,11,0,0,0,4.482-2.218,9.171,9.171,0,0,0,3.187-7.432,9.617,9.617,0,0,0-3.159-7.571,12.27,12.27,0,0,0-8.394-2.794H366.921v35.443h4.145V381ZM0,401.447V30.549L185.453,216,.007,401.441ZM379.825,376.97h-8.758V364.3h8.758c2.442,0,4.28.534,5.464,1.587a7.211,7.211,0,0,1,0,9.5C384.1,376.438,382.265,376.97,379.825,376.97ZM293.376,324h-154.9L215.96,246.5l77.454,77.451-.037.041ZM324,293.451l0,0L246.547,216,324,138.545,401.452,216,324,293.448Zm-108-108h0L30.548,0h370.9L216,185.451Zm216,0-.007-.007L354.546,108,432,30.549v154.9Z" transform="translate(472.843 -88.156)"/>
    <path id="Logo" d="M417.759,58V13.769L406.787,58H393.9L382.945,13.769V58H368.707V0h22.865l8.82,35.29L409.146,0H432V58Zm-74.3,0-2.814-9.575H320.892L318.149,58H300.39L321.548,0h18.973l21.151,58ZM324.673,35.883h12.36l-6.213-20.85ZM274.747,58l-9.279-17.725a13.465,13.465,0,0,0-3.14-4.47,7.113,7.113,0,0,0-4.255-1.346h-1.533V58H239.108V0h28.93q8.048,0,12.3,1.424A13.163,13.163,0,0,1,287.2,6.7a16.407,16.407,0,0,1,2.607,9.4,16.548,16.548,0,0,1-2,8.326,15.854,15.854,0,0,1-5.48,5.678,20.638,20.638,0,0,1-6.1,2.293,17.092,17.092,0,0,1,4.517,2.14,17.572,17.572,0,0,1,2.777,3.05,22.432,22.432,0,0,1,2.433,3.6L294.361,58ZM256.541,23.5h7.32a25.536,25.536,0,0,0,4.6-.79,4.583,4.583,0,0,0,2.814-1.819,5.473,5.473,0,0,0,1.092-3.363,5.408,5.408,0,0,0-1.726-4.314q-1.722-1.5-6.473-1.5h-7.628ZM189.612,54.592a22.97,22.97,0,0,1-9.442-10.138A34.261,34.261,0,0,1,176.818,29a33.131,33.131,0,0,1,3.666-15.973A24.1,24.1,0,0,1,191.222,2.714Q196.743,0,206.074,0q9,0,13.46,1.682a17.459,17.459,0,0,1,7.409,5.224,23.513,23.513,0,0,1,4.425,8.971l-16.185,2.986A9.048,9.048,0,0,0,211.8,14a10.325,10.325,0,0,0-6.091-1.682,10.825,10.825,0,0,0-8.794,3.96q-3.277,3.96-3.277,12.528,0,9.111,3.314,13.009t9.239,3.9a16.99,16.99,0,0,0,5.369-.843A28.4,28.4,0,0,0,217.405,42v-5.28h-11.22V25.059h25.924V48.97a52.6,52.6,0,0,1-13.167,7.136A43.414,43.414,0,0,1,205.371,58Q195.707,58,189.612,54.592ZM154.268,58,133.025,26.151V58H116.54V0h16.367l21.362,32.087V0H170.79V58ZM91.29,58l-2.814-9.575H68.729L65.985,58H48.222L69.38,0H88.354l21.154,58ZM72.505,35.883h12.36l-6.213-20.85ZM17.866,58V14.321H0V0H53.247V14.321H35.381V58Z" transform="translate(472.843 375.844)"/>
  </g>
</svg>
